<?xml version="1.0" encoding="UTF-8"?>
<svg xmlns="http://www.w3.org/2000/svg" xmlns:xlink="http://www.w3.org/1999/xlink" width="854" height="480" viewBox="0 0 854 480">
<defs>
<g>
<g id="glyph-0-0">
<path d="M 3.203125 -2.5625 C 3.140625 -2.863281 3.019531 -3.085938 2.84375 -3.234375 C 2.664062 -3.378906 2.414062 -3.453125 2.09375 -3.453125 C 1.664062 -3.453125 1.347656 -3.316406 1.140625 -3.046875 C 0.941406 -2.773438 0.84375 -2.363281 0.84375 -1.8125 C 0.84375 -1.28125 0.945312 -0.875 1.15625 -0.59375 C 1.375 -0.320312 1.6875 -0.1875 2.09375 -0.1875 C 2.28125 -0.1875 2.457031 -0.207031 2.625 -0.25 C 2.789062 -0.300781 2.953125 -0.375 3.109375 -0.46875 L 3.109375 -1.40625 L 2.421875 -1.40625 L 2.421875 -1.671875 L 3.59375 -1.671875 L 3.59375 -0.3125 C 3.382812 -0.1875 3.15625 -0.0859375 2.90625 -0.015625 C 2.65625 0.046875 2.382812 0.078125 2.09375 0.078125 C 1.550781 0.078125 1.113281 -0.09375 0.78125 -0.4375 C 0.445312 -0.789062 0.28125 -1.25 0.28125 -1.8125 C 0.28125 -2.394531 0.445312 -2.859375 0.78125 -3.203125 C 1.113281 -3.546875 1.5625 -3.71875 2.125 -3.71875 C 2.332031 -3.71875 2.546875 -3.691406 2.765625 -3.640625 C 2.984375 -3.585938 3.21875 -3.515625 3.46875 -3.421875 L 3.46875 -2.5625 Z "/>
</g>
<g id="glyph-0-1">
<path d="M 2.703125 -1.25 L 0.78125 -1.25 L 0.78125 -1.234375 C 0.78125 -0.878906 0.84375 -0.613281 0.96875 -0.4375 C 1.101562 -0.257812 1.300781 -0.171875 1.5625 -0.171875 C 1.75 -0.171875 1.90625 -0.222656 2.03125 -0.328125 C 2.164062 -0.429688 2.257812 -0.582031 2.3125 -0.78125 L 2.671875 -0.78125 C 2.597656 -0.5 2.460938 -0.285156 2.265625 -0.140625 C 2.078125 0.00390625 1.828125 0.078125 1.515625 0.078125 C 1.128906 0.078125 0.820312 -0.046875 0.59375 -0.296875 C 0.363281 -0.546875 0.25 -0.878906 0.25 -1.296875 C 0.25 -1.710938 0.359375 -2.046875 0.578125 -2.296875 C 0.804688 -2.546875 1.109375 -2.671875 1.484375 -2.671875 C 1.867188 -2.671875 2.164062 -2.546875 2.375 -2.296875 C 2.59375 -2.054688 2.703125 -1.707031 2.703125 -1.25 Z M 2.1875 -1.515625 C 2.175781 -1.816406 2.109375 -2.039062 1.984375 -2.1875 C 1.867188 -2.34375 1.703125 -2.421875 1.484375 -2.421875 C 1.273438 -2.421875 1.109375 -2.34375 0.984375 -2.1875 C 0.867188 -2.03125 0.800781 -1.804688 0.78125 -1.515625 Z "/>
</g>
<g id="glyph-0-2">
<path d="M 2.59375 -2.09375 C 2.675781 -2.28125 2.785156 -2.421875 2.921875 -2.515625 C 3.054688 -2.617188 3.210938 -2.671875 3.390625 -2.671875 C 3.660156 -2.671875 3.863281 -2.582031 4 -2.40625 C 4.132812 -2.238281 4.203125 -1.988281 4.203125 -1.65625 L 4.203125 -0.265625 L 4.609375 -0.265625 L 4.609375 0 L 3.359375 0 L 3.359375 -0.265625 L 3.75 -0.265625 L 3.75 -1.59375 C 3.75 -1.863281 3.707031 -2.050781 3.625 -2.15625 C 3.550781 -2.269531 3.425781 -2.328125 3.25 -2.328125 C 3.039062 -2.328125 2.882812 -2.25 2.78125 -2.09375 C 2.675781 -1.945312 2.625 -1.734375 2.625 -1.453125 L 2.625 -0.265625 L 3.015625 -0.265625 L 3.015625 0 L 1.796875 0 L 1.796875 -0.265625 L 2.1875 -0.265625 L 2.1875 -1.609375 C 2.1875 -1.867188 2.144531 -2.050781 2.0625 -2.15625 C 1.988281 -2.269531 1.859375 -2.328125 1.671875 -2.328125 C 1.472656 -2.328125 1.320312 -2.25 1.21875 -2.09375 C 1.113281 -1.945312 1.0625 -1.734375 1.0625 -1.453125 L 1.0625 -0.265625 L 1.453125 -0.265625 L 1.453125 0 L 0.203125 0 L 0.203125 -0.265625 L 0.609375 -0.265625 L 0.609375 -2.34375 L 0.1875 -2.34375 L 0.1875 -2.59375 L 1.0625 -2.59375 L 1.0625 -2.140625 C 1.144531 -2.304688 1.25 -2.4375 1.375 -2.53125 C 1.5 -2.625 1.644531 -2.671875 1.8125 -2.671875 C 2.007812 -2.671875 2.175781 -2.617188 2.3125 -2.515625 C 2.445312 -2.410156 2.539062 -2.269531 2.59375 -2.09375 Z "/>
</g>
<g id="glyph-0-3">
<path d="M 0.484375 -3.40625 C 0.484375 -3.476562 0.507812 -3.539062 0.5625 -3.59375 C 0.625 -3.644531 0.691406 -3.671875 0.765625 -3.671875 C 0.835938 -3.671875 0.898438 -3.644531 0.953125 -3.59375 C 1.015625 -3.539062 1.046875 -3.476562 1.046875 -3.40625 C 1.046875 -3.320312 1.015625 -3.253906 0.953125 -3.203125 C 0.898438 -3.148438 0.835938 -3.125 0.765625 -3.125 C 0.691406 -3.125 0.625 -3.148438 0.5625 -3.203125 C 0.507812 -3.253906 0.484375 -3.320312 0.484375 -3.40625 Z M 1.0625 -0.265625 L 1.484375 -0.265625 L 1.484375 0 L 0.1875 0 L 0.1875 -0.265625 L 0.609375 -0.265625 L 0.609375 -2.328125 L 0.1875 -2.328125 L 0.1875 -2.59375 L 1.0625 -2.59375 Z "/>
</g>
<g id="glyph-0-4">
<path d="M 0.203125 0 L 0.203125 -0.265625 L 0.609375 -0.265625 L 0.609375 -2.328125 L 0.1875 -2.328125 L 0.1875 -2.59375 L 1.0625 -2.59375 L 1.0625 -2.140625 C 1.144531 -2.304688 1.25 -2.4375 1.375 -2.53125 C 1.507812 -2.625 1.664062 -2.671875 1.84375 -2.671875 C 2.132812 -2.671875 2.347656 -2.585938 2.484375 -2.421875 C 2.617188 -2.253906 2.6875 -2 2.6875 -1.65625 L 2.6875 -0.265625 L 3.078125 -0.265625 L 3.078125 0 L 1.84375 0 L 1.84375 -0.265625 L 2.234375 -0.265625 L 2.234375 -1.515625 C 2.234375 -1.828125 2.191406 -2.039062 2.109375 -2.15625 C 2.035156 -2.28125 1.898438 -2.34375 1.703125 -2.34375 C 1.492188 -2.34375 1.332031 -2.265625 1.21875 -2.109375 C 1.113281 -1.953125 1.0625 -1.734375 1.0625 -1.453125 L 1.0625 -0.265625 L 1.453125 -0.265625 L 1.453125 0 Z "/>
</g>
<g id="glyph-0-5">
</g>
<g id="glyph-0-6">
<path d="M 0.28125 0 L 0.28125 -0.265625 L 0.734375 -0.265625 L 0.734375 -3.390625 L 0.28125 -3.390625 L 0.28125 -3.640625 L 3.265625 -3.640625 L 3.265625 -2.828125 L 2.953125 -2.828125 L 2.953125 -3.34375 L 1.234375 -3.34375 L 1.234375 -2.125 L 2.484375 -2.125 L 2.484375 -2.578125 L 2.78125 -2.578125 L 2.78125 -1.375 L 2.484375 -1.375 L 2.484375 -1.828125 L 1.234375 -1.828125 L 1.234375 -0.265625 L 1.8125 -0.265625 L 1.8125 0 Z "/>
</g>
<g id="glyph-0-7">
<path d="M 2.390625 -1.8125 C 2.503906 -1.78125 2.601562 -1.726562 2.6875 -1.65625 C 2.769531 -1.582031 2.84375 -1.476562 2.90625 -1.34375 L 3.4375 -0.265625 L 3.890625 -0.265625 L 3.890625 0 L 3.03125 0 L 2.453125 -1.15625 C 2.347656 -1.382812 2.25 -1.53125 2.15625 -1.59375 C 2.0625 -1.65625 1.9375 -1.6875 1.78125 -1.6875 L 1.234375 -1.6875 L 1.234375 -0.265625 L 1.75 -0.265625 L 1.75 0 L 0.28125 0 L 0.28125 -0.265625 L 0.734375 -0.265625 L 0.734375 -3.390625 L 0.28125 -3.390625 L 0.28125 -3.640625 L 2.125 -3.640625 C 2.476562 -3.640625 2.75 -3.554688 2.9375 -3.390625 C 3.132812 -3.222656 3.234375 -2.984375 3.234375 -2.671875 C 3.234375 -2.421875 3.160156 -2.222656 3.015625 -2.078125 C 2.878906 -1.929688 2.671875 -1.84375 2.390625 -1.8125 Z M 1.234375 -1.953125 L 1.953125 -1.953125 C 2.203125 -1.953125 2.382812 -2.007812 2.5 -2.125 C 2.613281 -2.25 2.671875 -2.429688 2.671875 -2.671875 C 2.671875 -2.910156 2.613281 -3.085938 2.5 -3.203125 C 2.382812 -3.328125 2.203125 -3.390625 1.953125 -3.390625 L 1.234375 -3.390625 Z "/>
</g>
<g id="glyph-0-8">
<path d="M 0.28125 0 L 0.28125 -0.265625 L 0.734375 -0.265625 L 0.734375 -3.390625 L 0.28125 -3.390625 L 0.28125 -3.640625 L 3.203125 -3.640625 L 3.203125 -2.828125 L 2.90625 -2.828125 L 2.90625 -3.34375 L 1.234375 -3.34375 L 1.234375 -2.125 L 2.421875 -2.125 L 2.421875 -2.578125 L 2.734375 -2.578125 L 2.734375 -1.375 L 2.421875 -1.375 L 2.421875 -1.828125 L 1.234375 -1.828125 L 1.234375 -0.296875 L 2.953125 -0.296875 L 2.953125 -0.8125 L 3.25 -0.8125 L 3.25 0 Z "/>
</g>
</g>
</defs>
<g fill="rgb(0%, 89.803922%, 100%)" fill-opacity="1">
<use xlink:href="#glyph-0-0" x="30" y="24.641602"/>
<use xlink:href="#glyph-0-1" x="34" y="24.641602"/>
<use xlink:href="#glyph-0-2" x="37" y="24.641602"/>
<use xlink:href="#glyph-0-3" x="42" y="24.641602"/>
<use xlink:href="#glyph-0-4" x="44" y="24.641602"/>
<use xlink:href="#glyph-0-3" x="47" y="24.641602"/>
<use xlink:href="#glyph-0-5" x="49" y="24.641602"/>
</g>
<g fill="rgb(0%, 89.803922%, 100%)" fill-opacity="1">
<use xlink:href="#glyph-0-6" x="30" y="29.516602"/>
<use xlink:href="#glyph-0-7" x="33" y="29.516602"/>
<use xlink:href="#glyph-0-8" x="37" y="29.516602"/>
<use xlink:href="#glyph-0-8" x="41" y="29.516602"/>
</g>
</svg>
